<svg xmlns="http://www.w3.org/2000/svg" width="680" height="680" viewBox="0 0 680 680">
<title>The Audiopheliac — Spectrum Wax</title>
<desc>Vinyl record disc in the Full Spectrum brand gradient — yellow through lime, cyan, blue, indigo and magenta — on an ink background, with a Sunlamp Yellow spindle dot at center. Custom Spotify profile image.</desc>
<defs>
<linearGradient id="spec" x1="0%" y1="25%" x2="100%" y2="75%">
<stop offset="0%"    stop-color="#F8E91F"/>
<stop offset="16.7%" stop-color="#99E257"/>
<stop offset="33.3%" stop-color="#41D99A"/>
<stop offset="50%"   stop-color="#0ABED3"/>
<stop offset="66.7%" stop-color="#0F82DF"/>
<stop offset="83.3%" stop-color="#5E54D4"/>
<stop offset="100%"  stop-color="#C24CC8"/>
</linearGradient>
</defs>
<rect width="680" height="680" fill="#0A0A0B"/>
<circle cx="340" cy="340" r="300" fill="#0A0A0B"/>
<circle cx="340" cy="340" r="296" fill="url(#spec)"/>
<circle cx="340" cy="340" r="105" fill="none" stroke="#000" stroke-opacity=".22" stroke-width="1"/>
<circle cx="340" cy="340" r="113" fill="none" stroke="#000" stroke-opacity=".22" stroke-width="1"/>
<circle cx="340" cy="340" r="121" fill="none" stroke="#000" stroke-opacity=".22" stroke-width="1"/>
<circle cx="340" cy="340" r="129" fill="none" stroke="#000" stroke-opacity=".22" stroke-width="1"/>
<circle cx="340" cy="340" r="137" fill="none" stroke="#000" stroke-opacity=".22" stroke-width="1"/>
<circle cx="340" cy="340" r="145" fill="none" stroke="#000" stroke-opacity=".22" stroke-width="1"/>
<circle cx="340" cy="340" r="153" fill="none" stroke="#000" stroke-opacity=".22" stroke-width="1"/>
<circle cx="340" cy="340" r="161" fill="none" stroke="#000" stroke-opacity=".22" stroke-width="1"/>
<circle cx="340" cy="340" r="169" fill="none" stroke="#000" stroke-opacity=".22" stroke-width="1"/>
<circle cx="340" cy="340" r="177" fill="none" stroke="#000" stroke-opacity=".22" stroke-width="1"/>
<circle cx="340" cy="340" r="185" fill="none" stroke="#000" stroke-opacity=".22" stroke-width="1"/>
<circle cx="340" cy="340" r="193" fill="none" stroke="#000" stroke-opacity=".22" stroke-width="1"/>
<circle cx="340" cy="340" r="201" fill="none" stroke="#000" stroke-opacity=".22" stroke-width="1"/>
<circle cx="340" cy="340" r="209" fill="none" stroke="#000" stroke-opacity=".22" stroke-width="1"/>
<circle cx="340" cy="340" r="217" fill="none" stroke="#000" stroke-opacity=".22" stroke-width="1"/>
<circle cx="340" cy="340" r="225" fill="none" stroke="#000" stroke-opacity=".22" stroke-width="1"/>
<circle cx="340" cy="340" r="233" fill="none" stroke="#000" stroke-opacity=".22" stroke-width="1"/>
<circle cx="340" cy="340" r="241" fill="none" stroke="#000" stroke-opacity=".22" stroke-width="1"/>
<circle cx="340" cy="340" r="249" fill="none" stroke="#000" stroke-opacity=".22" stroke-width="1"/>
<circle cx="340" cy="340" r="257" fill="none" stroke="#000" stroke-opacity=".22" stroke-width="1"/>
<circle cx="340" cy="340" r="265" fill="none" stroke="#000" stroke-opacity=".22" stroke-width="1"/>
<circle cx="340" cy="340" r="273" fill="none" stroke="#000" stroke-opacity=".22" stroke-width="1"/>
<circle cx="340" cy="340" r="281" fill="none" stroke="#000" stroke-opacity=".22" stroke-width="1"/>
<circle cx="340" cy="340" r="289" fill="none" stroke="#000" stroke-opacity=".22" stroke-width="1"/>
<circle cx="340" cy="340" r="98"  fill="none" stroke="#000" stroke-opacity=".55" stroke-width="2.5"/>
<circle cx="340" cy="340" r="90"  fill="#0A0A0B"/>
<circle cx="340" cy="340" r="84"  fill="none" stroke="#F8E91F" stroke-opacity=".45" stroke-width="1.5"/>
<circle cx="340" cy="340" r="10"  fill="#F8E91F"/>
<circle cx="340" cy="340" r="4"   fill="#0A0A0B"/>
</svg>
